<svg id="Layer_3" enable-background="new 0 0 64 64" height="512" viewBox="0 0 64 64" width="512" xmlns="http://www.w3.org/2000/svg"><path d="m23 5h-6c-6.627 0-12 5.373-12 12v24h.286c1.06-.644 2.281-1 3.542-1h7.172v-4.459c.947.297 1.955.459 3 .459h2c1.045 0 2.053-.162 3-.459v4.459h7.172c1.261 0 2.482.356 3.542 1h.286v-24c0-6.627-5.373-12-12-12z" fill="#5b6673"/><path d="m31 18v8c0 5.523-4.477 10-10 10h-2c-5.523 0-10-4.477-10-10v-8h7l3-3 3 3z" fill="#fdd089"/><path d="m47 34v-5.172c0-1.811-.719-3.548-2-4.828-1.281-1.281-2-3.017-2-4.828v-1.172c0-4.418 3.582-8 8-8 4.418 0 8 3.582 8 8v1.172c0 1.811-.719 3.548-2 4.828-1.281 1.281-2 3.017-2 4.828v5.172z" fill="#ba9b50"/><path d="m54 24c1.281-1.281 2-3.017 2-4.828v-1.172c0-3.905-2.799-7.152-6.5-7.855-3.701.703-6.5 3.95-6.5 7.855v1.172c0 1.811.719 3.548 2 4.828s2 3.017 2 4.828v5.172h5v-5.172c0-1.811.719-3.547 2-4.828z" fill="#f8cf6a"/><path d="m47 30h8v4h-8z" fill="#8b8a8b"/><path d="m47 30h5v4h-5z" fill="#bab8b9"/><path d="m44 43c0 1.657 1.343 3 3 3h15v16h-14c-2.209 0-4-1.791-4-4z" fill="#a5484e"/><path d="m47 46c-1.657 0-3-1.343-3-3v15c0 2.209 1.791 4 4 4h11v-16z" fill="#dc6068"/><path d="m62 46h-15c-1.657 0-3-1.343-3-3 0-1.657 1.343-3 3-3h15l-1.293 1.293c-.453.453-.707 1.067-.707 1.707 0 .64.254 1.254.707 1.707z" fill="#8b8a8b"/><path d="m57 43c0-.64.254-1.254.707-1.707l1.293-1.293h-12c-1.657 0-3 1.343-3 3s1.343 3 3 3h12l-1.293-1.293c-.453-.453-.707-1.067-.707-1.707z" fill="#bab8b9"/><path d="m21 36h-2c-1.045 0-2.053-.162-3-.459v4.459l4 4 4-4s0-2.397 0-4.459c-.947.297-1.955.459-3 .459z" fill="#fdd089"/><path d="m24 40-4 4-4-4h-7.172c-1.811 0-3.547.719-4.828 2-1.281 1.281-2 3.017-2 4.828v15.172h36v-15.172c0-1.811-.719-3.548-2-4.828-1.281-1.281-3.017-2-4.828-2z" fill="#85b6cf"/><path d="m20 44-4 6-4-10h4l4 4 4-4h4l-4 10z" fill="#435b68"/><path d="m38 63h-36c-.552 0-1-.447-1-1v-15.172c0-2.092.814-4.058 2.293-5.535 1.479-1.479 3.445-2.293 5.536-2.293h6.171v-3h2v4c0 .553-.448 1-1 1h-7.171c-1.557 0-3.021.606-4.122 1.707s-1.707 2.564-1.707 4.121v14.172h34v-14.172c0-1.557-.606-3.021-1.707-4.121-1.101-1.101-2.565-1.707-4.122-1.707h-7.171c-.552 0-1-.447-1-1v-4h2v3h6.171c2.091 0 4.057.814 5.536 2.293 1.479 1.478 2.293 3.443 2.293 5.535v15.172c0 .553-.448 1-1 1z"/><path d="m21 37h-2c-6.065 0-11-4.935-11-11v-8c0-.552.448-1 1-1h6.586l2.707-2.707c.391-.391 1.023-.391 1.414 0l2.707 2.707h8.586c.552 0 1 .448 1 1v8c0 6.065-4.935 11-11 11zm-11-18v7c0 4.962 4.038 9 9 9h2c4.962 0 9-4.038 9-9v-7h-8c-.265 0-.52-.105-.707-.293l-2.293-2.293-2.293 2.293c-.187.188-.442.293-.707.293z"/><path d="m31 18v8c0 5.523-4.477 10-10 10h-2c-5.523 0-10-4.477-10-10v-8h7l3-3 3 3z" fill="#fdd089"/><path d="m21 37h-2c-6.065 0-11-4.935-11-11v-8c0-.552.448-1 1-1h6.586l2.707-2.707c.391-.391 1.023-.391 1.414 0l2.707 2.707h8.586c.552 0 1 .448 1 1v8c0 6.065-4.935 11-11 11zm-11-18v7c0 4.962 4.038 9 9 9h2c4.962 0 9-4.038 9-9v-7h-8c-.265 0-.52-.105-.707-.293l-2.293-2.293-2.293 2.293c-.187.188-.442.293-.707.293z"/><path d="m14 21h2v4h-2z"/><path d="m24 21h2v4h-2z"/><path d="m21 33h-2c-1.654 0-3-1.346-3-3v-1h2v1c0 .551.449 1 1 1h2c.551 0 1-.449 1-1v-1h2v1c0 1.654-1.346 3-3 3z"/><path d="m36 41h-2v-24c0-6.065-4.935-11-11-11h-6c-6.065 0-11 4.935-11 11v24h-2v-24c0-7.168 5.832-13 13-13h6c7.168 0 13 5.832 13 13z"/><path d="m20 45c-.256 0-.512-.098-.707-.293l-4-4 1.414-1.414 3.293 3.293 3.293-3.293 1.414 1.414-4 4c-.195.195-.451.293-.707.293z"/><path d="m7 50h2v12h-2z"/><path d="m31 50h2v12h-2z"/><path d="m16 51c-.034 0-.069-.002-.104-.006-.37-.038-.687-.278-.825-.623l-4-10 1.857-.742 3.294 8.234 2.945-4.418 1.664 1.109-4 6c-.185.281-.499.446-.831.446z"/><path d="m24 51c-.332 0-.646-.165-.832-.445l-4-6 1.664-1.109 2.945 4.418 3.294-8.234 1.857.742-4 10c-.138.345-.456.585-.825.623-.034.003-.069.005-.103.005z"/><path d="m55 35h-8c-.552 0-1-.447-1-1v-5.171c0-1.557-.606-3.021-1.707-4.122-1.479-1.478-2.293-3.444-2.293-5.536v-1.171c0-4.962 4.038-9 9-9s9 4.038 9 9v1.171c0 2.091-.814 4.057-2.293 5.536-1.101 1.101-1.707 2.564-1.707 4.122v5.171c0 .553-.448 1-1 1zm-7-2h6v-4.171c0-2.091.814-4.057 2.293-5.536 1.101-1.101 1.707-2.564 1.707-4.122v-1.171c0-3.86-3.14-7-7-7s-7 3.14-7 7v1.171c0 1.557.606 3.021 1.707 4.122 1.479 1.478 2.293 3.444 2.293 5.536z"/><path d="m47 29h8v2h-8z"/><path d="m50 18h2v12h-2z"/><path d="m48 17h6v2h-6z"/><path d="m50 2h2v5h-2z"/><path d="m58.379 7.5h4.243v2h-4.243z" transform="matrix(.707 -.707 .707 .707 11.71 45.27)"/><path d="m40.5 6.379h2v4.243h-2z" transform="matrix(.707 -.707 .707 .707 6.145 31.835)"/><path d="m62 63h-14c-2.757 0-5-2.243-5-5v-15h2v15c0 1.654 1.346 3 3 3h13v-15h2v16c0 .553-.448 1-1 1z"/><path d="m62 47h-15c-2.206 0-4-1.794-4-4s1.794-4 4-4h15c.404 0 .769.243.924.617s.069.804-.217 1.09l-1.293 1.293c-.267.268-.414.622-.414 1s.147.732.415 1l1.292 1.293c.286.286.372.716.217 1.09s-.52.617-.924.617zm-15-6c-1.103 0-2 .897-2 2s.897 2 2 2h12.646c-.419-.579-.646-1.272-.646-2s.227-1.422.646-2z"/><path d="m47 49h12v2h-12z"/><path d="m47 53h12v2h-12z"/><path d="m47 57h12v2h-12z"/></svg>