<svg id="Layer_1" enable-background="new 0 0 256 256" height="512" viewBox="0 0 256 256" width="512" xmlns="http://www.w3.org/2000/svg"><g id="Layer_64"><g><path d="m104.6 248.8v-6.8c0-2.5 2.1-4.6 4.6-4.5h.1 20.1v-13.8h-18.3c-3.6 0-6.5-2.9-6.5-6.5v-78.9c0-3.4 2.5-6.2 5.9-6.5v-.8c-12.1 6.6-26.7 6.8-39 .6v15.7l-16.3 8.1c-2.3 1.1-4.7 2-7.2 2.6l-29.1 7.3c-7.1 1.8-12.2 8-12.6 15.3l-3.8 66.4c-.2 3.4 2.4 6.3 5.8 6.5h.3 100.6c-2.5 0-4.6-2.1-4.6-4.7z" fill="#edf4fc"/><path d="m132.6 60.3v33.6c-.1 23.3-19 42.2-42.3 42.3-23.3-.1-42.2-19-42.3-42.3v-13.3c0-2.4 2-4.4 4.4-4.4h.2c10.8.5 38.1-1.2 54.3-27.6 1.3-2.1 4-2.7 6.1-1.5.4.3.8.6 1.1.9 3.7 4.4 9 7.2 14.7 7.8 2.2.4 3.8 2.2 3.8 4.5z" fill="#f9d0b4"/><path d="m52.6 76.2c10.8.5 38.1-1.2 54.3-27.6 1.3-2.1 4-2.7 6.1-1.5.4.3.8.6 1.1.9 3.7 4.4 9 7.2 14.7 7.8 2.2.3 3.8 2.1 3.8 4.4v33.6c0 15.5-8.6 29.8-22.2 37.2v.6h.7 58.7c-11.7-12.8-18.3-29.6-18.4-47v-46.6c0-13-9.3-24.5-22.2-26.3-5.8-.8-11.7.4-16.8 3.4-4.6-7.8-13-12.6-22.1-12.6h-13.2c-25.8.1-46.6 20.9-46.7 46.6v33.7c0 18.4-5.8 37.1-19.1 49.9-1.7 1.6-1.8 4.3-.2 6.1l.5.5c5.1 3.8 15.2 9.8 28.2 9.3 6.1-.3 12.2.8 17.7 3.4l.4.2c.6.3 1.3.6 1.9.9l11.6-5.7v-15.7c-14.3-7.2-23.4-21.8-23.4-37.9v-13.2c0-2.4 2-4.4 4.4-4.4z" fill="#5b5d60"/><path d="m104.6 138.1c0-3.4 2.5-6.2 5.9-6.5v-.6c-12.1 6.6-26.7 6.8-39 .6v15.7l-5.8 2.9 2.1 17.4c11.1 6.7 24.5 8.3 36.9 4.6z" fill="#f9d0b4"/><path d="m65.6 150.2-10.5 5.2c-2.3 1.1-4.7 2-7.2 2.6l-29.1 7.3c-7.1 1.8-12.2 8-12.6 15.3l-3.7 66.4c-.2 3.4 2.4 6.3 5.8 6.5h.3 69.2z" fill="#fc8c48"/><path d="m109.3 237.4h20.1v-13.8h-18.3c-1.2 0-2.4-.3-3.4-1l-1.9 16.3c.8-.9 2.1-1.5 3.5-1.5z" fill="#fc8c48"/><path d="m65.6 150.2-10.5 5.2c-.4.2-.8.4-1.2.5l-8.3 30.5c-.1.7.2 1.4.8 1.7l8.7 5.6c.7.5 1 1.4.6 2.2l-5 10c-.2.4-.2.8-.1 1.2l16.8 46.4h10.5z" fill="#fca265"/><path d="m109.3 237.4h11l5-13.8h-14.2c-1.2 0-2.4-.3-3.4-1l-1.9 16.3c.8-.9 2.1-1.5 3.5-1.5z" fill="#fca265"/><circle cx="209.4" cy="115.4" fill="#70d6f9" r="3.1"/><circle cx="169.4" cy="63.4" fill="#fc657e" r="3.1"/><circle cx="10.4" cy="33.4" fill="#f5c84c" r="3.1"/><path d="m193.5 103.9c-4.3.8-7.8 4.1-8.6 8.5 0 .1-.1.2-.2.2s-.1-.1-.2-.2c-.9-4.3-4.3-7.7-8.6-8.5-.1 0-.2-.1-.2-.2s.1-.1.2-.2c4.3-.8 7.8-4.1 8.6-8.5 0-.1.1-.2.2-.2s.1.1.2.2c.9 4.3 4.3 7.7 8.6 8.5.1 0 .2.1.2.2s-.1.2-.2.2z" fill="#f5c84c"/><path d="m28.4 5h-2.1v-2.1c0-1.6-1.3-2.9-2.9-2.9s-2.9 1.3-2.9 2.9v2.1h-2.1c-1.6 0-2.9 1.3-2.9 2.9s1.3 2.9 2.9 2.9h2.1v2.2c0 1.6 1.3 2.9 2.9 2.9s2.9-1.3 2.9-2.9v-2.1h2.1c1.6 0 2.9-1.3 2.9-2.9s-1.3-3-2.9-3z" fill="#87d147"/><path d="m253.5 248.8v-6.8c0-2.5-2.1-4.6-4.6-4.5h-.1-139.5c-2.5-.1-4.7 1.9-4.7 4.4v.1 6.8c0 2.6 2.1 4.7 4.7 4.7h139.5c2.6 0 4.7-2.1 4.7-4.7z" fill="#3a70bf"/><path d="m225 198.2h-92c-2 0-3.6 1.6-3.6 3.6v35.6h99.2v-35.6c0-2-1.6-3.6-3.6-3.6z" fill="#5290db"/><path d="m247 131.6h-135.9c-3.6 0-6.5 2.9-6.5 6.5v79c0 3.6 2.9 6.5 6.5 6.5h18.3v-21.9c0-2 1.6-3.6 3.6-3.6h92c2 0 3.6 1.6 3.6 3.6v21.9h18.4c3.6 0 6.5-2.9 6.5-6.5v-79c0-3.6-2.9-6.5-6.5-6.5z" fill="#3a70bf"/><path d="m247 129.1h-76c-10.9-12.3-17-28.1-17-44.5v-46.6c0-14.5-10.5-26.8-24.4-28.8-5.6-.8-11.3.1-16.3 2.6-5.4-7.4-13.9-11.8-23-11.8h-13.2c-27.2 0-49.1 22-49.2 49.1v33.7c0 19.6-6.5 36.7-18.4 48.1-2.7 2.6-2.8 6.9-.2 9.6.2.3.5.5.8.7 5.2 3.9 15.9 10.4 29.8 9.8 4.8-.3 9.5.5 14 2.1-2.1 1-4.3 1.8-6.6 2.4l-29.1 7.3c-8.2 2-14 9.2-14.5 17.6l-3.7 66.4c-.3 4.8 3.4 8.9 8.2 9.2h.5 240.1c4 0 7.2-3.2 7.2-7.2v-6.8c0-3.9-3.2-7.1-7.1-7-.1 0-.1 0-.1 0h-17.6v-8.8h15.8c5 0 9-4.1 9-9v-78.9c0-5.2-4.1-9.2-9-9.2zm-135.9 97h10.6l-3.2 8.8h-9.2c-.2 0-.4 0-.6 0l1.1-8.9c.4.1.9.1 1.3.1zm12.7 8.8 3.1-8.5v8.5zm-55.5-83.2 4.3-2.1c.9-.4 1.4-1.3 1.4-2.2v-11.8c5.2 2.1 10.8 3.1 16.4 3.1 4 0 8-.5 11.8-1.6 0 .2-.1.7-.1 1.1v32.2c-10.8 2.7-22.3 1.2-32.1-4.2zm-17.8-57.9v-13.2c0-1.1.9-1.9 1.9-1.9h.1c22.7 1 44.1-8.5 56.5-28.8.5-.9 1.7-1.2 2.6-.7.2.1.4.3.5.4 4.2 4.8 10 7.9 16.3 8.6.9.1 1.7.9 1.7 1.9v33.6c0 22-17.8 39.8-39.8 39.8s-39.8-17.7-39.8-39.7zm-10.8 52.2c-12.4.5-22-5.3-26.6-8.8-.8-.6-.9-1.7-.3-2.5l.2-.2c12.8-12.3 19.9-30.7 19.9-51.7v-33.7c.1-24.3 19.8-44.1 44.2-44.1h13.2c8.2.1 15.8 4.4 20 11.4.7 1.2 2.2 1.6 3.4.9 4.5-2.7 9.9-3.8 15.1-3.1 11.4 1.6 20 11.8 20 23.8v46.6c.1 16.1 5.5 31.8 15.5 44.5h-46.5c10.8-8.5 17.2-21.5 17.2-35.2v-33.6c0-3.5-2.6-6.4-6-6.8-5.1-.5-9.8-3-13.2-6.9-2.5-2.9-6.8-3.3-9.7-.8-.6.5-1.1 1-1.4 1.7-11.4 18.5-31.1 27.1-52 26.2-3.8-.2-7.1 2.8-7.2 6.6v.3 13.2c0 16.4 9 31.5 23.4 39.4v12.6l-9.1 4.5c-6.6-3-11.3-4.7-20.1-4.3zm-34.7 101.1 3.7-66.3c.3-6.2 4.7-11.5 10.7-13l29.1-7.3c.6-.1 1.1-.3 1.7-.5l-7 25.8v.2c-.3 1.7.4 3.4 1.9 4.3l8.1 5.2-4.7 9.4c-.5.9-.6 2-.3 3 0 .1 0 .1.1.2l15.6 43h-21.2v-29.8c0-1.4-1.1-2.5-2.5-2.5s-2.5 1.1-2.5 2.5v29.7h-29c-2 0-3.7-1.7-3.7-3.7 0-.1 0-.1 0-.2zm64.2 3.9-16.1-44.3 4.9-9.7c1-1.9.3-4.3-1.5-5.4l-8.2-5.2 7.8-28.6c.1 0 .1-.1.2-.1l7.3-3.6 11.5 97h-5.9zm10.9 0-9.4-79c9.8 4.6 20.8 5.8 31.4 3.4v41.6c0 2.5 1.1 5 2.9 6.7l-1.7 14.2c-.8 1.2-1.3 2.6-1.3 4v6.8c0 .8.1 1.5.4 2.2h-22.3zm170.9-9.1v6.8c0 1.2-1 2.2-2.2 2.2h-139.5c-1.2 0-2.2-1-2.2-2.2v-6.8c0-1.2 1-2.1 2.2-2h.1 139.5c1.2-.1 2.2.8 2.2 1.9-.1.1-.1.1-.1.1zm-119.1-7v-33.1c0-.6.5-1.1 1.1-1.1h92c.6 0 1.1.5 1.1 1.1v33.1zm119.1-17.8c0 2.2-1.8 4-4 4h-15.8v-19.4c0-3.4-2.7-6.1-6.1-6.1h-92c-3.4 0-6.1 2.7-6.1 6.1v19.4h-15.8c-2.2 0-4-1.8-4-4v-78.9c0-2.2 1.8-4 4-4h135.8c2.2 0 4 1.8 4 4z"/><path d="m148.7 155.7c-1.4 0-2.5 1.1-2.5 2.5v10.4c0 1.4 1.1 2.5 2.5 2.5s2.5-1.1 2.5-2.5v-10.4c0-1.3-1.1-2.5-2.5-2.5z"/><path d="m136.6 155.7c-1.4 0-2.5 1.1-2.5 2.5v10.4c0 1.4 1.1 2.5 2.5 2.5s2.5-1.1 2.5-2.5v-10.4c0-1.3-1.1-2.5-2.5-2.5z"/><path d="m160.8 155.7c-1.4 0-2.5 1.1-2.5 2.5v10.4c0 1.4 1.1 2.5 2.5 2.5s2.5-1.1 2.5-2.5v-10.4c0-1.3-1.1-2.5-2.5-2.5z"/><path d="m173 155.7c-1.4 0-2.5 1.1-2.5 2.5v10.4c0 1.4 1.1 2.5 2.5 2.5s2.5-1.1 2.5-2.5v-10.4c0-1.3-1.2-2.5-2.5-2.5z"/><path d="m185.1 155.7c-1.4 0-2.5 1.1-2.5 2.5v10.4c0 1.4 1.1 2.5 2.5 2.5s2.5-1.1 2.5-2.5v-10.4c0-1.3-1.1-2.5-2.5-2.5z"/><path d="m197.2 155.7c-1.4 0-2.5 1.1-2.5 2.5v10.4c0 1.4 1.1 2.5 2.5 2.5s2.5-1.1 2.5-2.5v-10.4c0-1.3-1.1-2.5-2.5-2.5z"/><path d="m209.3 155.7c-1.4 0-2.5 1.1-2.5 2.5v10.4c0 1.4 1.1 2.5 2.5 2.5s2.5-1.1 2.5-2.5v-10.4c0-1.3-1.1-2.5-2.5-2.5z"/><path d="m221.5 155.7c-1.4 0-2.5 1.1-2.5 2.5v10.4c0 1.4 1.1 2.5 2.5 2.5s2.5-1.1 2.5-2.5v-10.4c0-1.3-1.1-2.5-2.5-2.5z"/></g></g></svg>