<svg height="512" viewBox="0 0 64 64" width="512" xmlns="http://www.w3.org/2000/svg"><path d="m39 41.36a9.82 9.82 0 0 0 -3.02-1.55l-2.79-.87.42 4.17a7.932 7.932 0 0 0 2.23 4.78 9.256 9.256 0 0 1 2.16 6.11 9.07 9.07 0 0 1 -2.29 6.23 4.4 4.4 0 0 0 -.66.77h7.95v-11.65a9.973 9.973 0 0 0 -4-7.99z" fill="#ffc477"/><path d="m55 34v18a5 5 0 0 0 -5 5h-6a4.941 4.941 0 0 0 -1-3 5.01 5.01 0 0 0 -4-2v-18a5 5 0 0 0 5-5h6a5 5 0 0 0 5 5z" fill="#00ccb3"/><path d="m61 46v10a1 1 0 0 1 -1 1h-3a1 1 0 0 0 1-1v-10z" fill="#009986"/><path d="m58 40h3v6h-3z" fill="#e6e7e8"/><path d="m61 30v10h-3v-10a1 1 0 0 0 -1-1h3a1 1 0 0 1 1 1z" fill="#009986"/><path d="m58 46v10a1 1 0 0 1 -1 1h-3a1 1 0 0 0 1-1v-10z" fill="#00b39d"/><path d="m55 40h3v6h-3z" fill="#e6e7e8"/><path d="m58 30v10h-3v-10a1 1 0 0 0 -1-1h3a1 1 0 0 1 1 1z" fill="#00b39d"/><path d="m55 52v4a1 1 0 0 1 -1 1h-4a5 5 0 0 1 5-5z" fill="#009986"/><path d="m55 30v4a5 5 0 0 1 -5-5h4a1 1 0 0 1 1 1z" fill="#009986"/><circle cx="47" cy="43" fill="#ffd422" r="4"/><path d="m40 29h4a5 5 0 0 1 -5 5v-4a1 1 0 0 1 1-1z" fill="#009986"/><path d="m43 54a5.01 5.01 0 0 0 -4-2v4a1 1 0 0 0 1 1h4a4.941 4.941 0 0 0 -1-3z" fill="#009986"/><path d="m35.84 47.89a9.256 9.256 0 0 1 2.16 6.11 9.07 9.07 0 0 1 -2.29 6.23 4.4 4.4 0 0 0 -.66.77h-24.1a4.4 4.4 0 0 0 -.66-.77 9.07 9.07 0 0 1 -2.29-6.23 9.256 9.256 0 0 1 2.16-6.11 7.932 7.932 0 0 0 2.23-4.78l.42-4.17.08-.03 2.98-.93 7.13 8.02 7.13-8.02 2.98.93.08.03.42 4.17a7.932 7.932 0 0 0 2.23 4.78z" fill="#3d9ae2"/><path d="m34 17a2 2 0 1 1 -1 3.73v-3.46a2 2 0 0 1 1-.27z" fill="#ffb655"/><path d="m33 20.73v2.27a10 10 0 0 1 -20 0v-8h20z" fill="#ffc477"/><path d="m30.13 37.98-7.13 8.02-7.13-8.02 3.13-.98v-4.84a9.944 9.944 0 0 0 8 0v4.84z" fill="#ffc477"/><path d="m23 3a14 14 0 0 0 -14 14v14a9.963 9.963 0 0 0 3.89 7.91l2.98-.93 3.13-.98v-4.84a9.991 9.991 0 0 1 -6-9.16v-2.27a2 2 0 1 1 0-3.46v-2.27h20v2.27a2 2 0 1 1 0 3.46v2.27a9.987 9.987 0 0 1 -6 9.16v4.84l3.13.98 2.98.93a9.963 9.963 0 0 0 3.89-7.91v-14a14 14 0 0 0 -14-14z" fill="#57565c"/><path d="m13 17.27v3.46a2 2 0 1 1 0-3.46z" fill="#ffb655"/><path d="m12.81 38.94-.42 4.17a7.932 7.932 0 0 1 -2.23 4.78 9.256 9.256 0 0 0 -2.16 6.11 9.07 9.07 0 0 0 2.29 6.23 4.4 4.4 0 0 1 .66.77h-7.95v-11.65a9.989 9.989 0 0 1 7.02-9.54z" fill="#ffc477"/><path d="m27 32.16v2a9.944 9.944 0 0 1 -8 0v-2a9.944 9.944 0 0 0 8 0z" fill="#ffb655"/><path d="m17 19h2v2h-2z"/><path d="m27 19h2v2h-2z"/><path d="m23 29a4 4 0 0 0 4-4h-2a2 2 0 0 1 -4 0h-2a4 4 0 0 0 4 4z"/><path d="m60 28h-20a2 2 0 0 0 -2 2v-13a15 15 0 0 0 -30 0v14a10.891 10.891 0 0 0 2.951 7.47l-1.228.384a10.943 10.943 0 0 0 -7.723 10.496v11.65a1 1 0 0 0 1 1h40a1 1 0 0 0 1-1v-3h16a2 2 0 0 0 2-2v-26a2 2 0 0 0 -2-2zm0 2v9h-1v-9zm-10.91 26h-4.18a6.008 6.008 0 0 0 -4.91-4.91v-16.18a6.007 6.007 0 0 0 4.91-4.91h4.181a6.006 6.006 0 0 0 4.909 4.91v16.18a6.008 6.008 0 0 0 -4.91 4.91zm-9.09 0v-2.858a3.991 3.991 0 0 1 2.858 2.858zm-3.447-8.812a6.952 6.952 0 0 1 -1.953-4.178l-.268-2.667 1.342.42a8.9 8.9 0 0 1 2.326 1.144v7.473a7.577 7.577 0 0 0 -1.447-2.192zm-1.519 12.306a5.2 5.2 0 0 0 -.476.506h-23.115a5.456 5.456 0 0 0 -.476-.506 8.1 8.1 0 0 1 -1.967-5.494 8.268 8.268 0 0 1 1.873-5.409 8.963 8.963 0 0 0 2.512-5.38l.354-3.517 1.813-.568 6.7 7.538a1 1 0 0 0 1.494 0l6.7-7.538 1.813.567.354 3.517a8.966 8.966 0 0 0 2.515 5.384 8.268 8.268 0 0 1 1.872 5.406 8.1 8.1 0 0 1 -1.966 5.494zm-3.034-43.494v7a9 9 0 0 1 -18 0v-7zm-12 21v-3.426a10.776 10.776 0 0 0 6 0v3.426a1 1 0 0 0 .7.954l1.655.518-5.355 6.028-5.356-6.023 1.655-.518a1 1 0 0 0 .701-.959zm36 4h1v4h-1zm3 0h1v4h-1zm-2-11v9h-1v-9zm-3 2.858a3.993 3.993 0 0 1 -2.857-2.858h2.857zm-11.142-2.858a3.993 3.993 0 0 1 -2.858 2.858v-2.858zm-4.858 9.559a11.324 11.324 0 0 0 -1.721-.7l-1.23-.384a10.9 10.9 0 0 0 2.951-7.475zm-6.5-6.759 1 1.73a10.958 10.958 0 0 0 3.482-3.221 8.909 8.909 0 0 1 -3.106 6.485l-4.876-1.529v-3.479a11 11 0 0 0 6-9.786v-1a2.981 2.981 0 0 0 2-.78v3.78a9.038 9.038 0 0 1 -4.5 7.8zm2.5-14.8a1 1 0 0 1 0 2zm-11-14a13.009 13.009 0 0 1 12.988 12.771 2.972 2.972 0 0 0 -1.988-.771v-1a1 1 0 0 0 -1-1h-3v-2h-2v2h-2v-4h-2v4h-11a1 1 0 0 0 -1 1v1a2.972 2.972 0 0 0 -1.988.771 13.009 13.009 0 0 1 12.988-12.771zm-11 16a1 1 0 0 1 0-2zm-1.983 11.306a10.958 10.958 0 0 0 3.483 3.221l1-1.73a9.038 9.038 0 0 1 -4.5-7.797v-3.78a2.981 2.981 0 0 0 2 .78v1a11 11 0 0 0 6 9.786v3.479l-4.877 1.526a8.909 8.909 0 0 1 -3.106-6.485zm-6.017 18.044a8.95 8.95 0 0 1 6.318-8.586l1.345-.421-.263 2.668a6.955 6.955 0 0 1 -1.95 4.175 10.234 10.234 0 0 0 -2.45 6.814 10.752 10.752 0 0 0 1.791 6h-4.791zm38 10.65h-4.79a9.426 9.426 0 0 0 1.285-2.7 1.988 1.988 0 0 0 1.505.7h2zm9.127-4a4 4 0 0 1 2.873-2.859v2.859zm4.873 0v-9h1v9zm3 0v-9h1v9z"/><path d="m47 38a5 5 0 1 0 5 5 5.006 5.006 0 0 0 -5-5zm0 8a3 3 0 1 1 3-3 3 3 0 0 1 -3 3z"/></svg>